<svg xmlns="http://www.w3.org/2000/svg" xmlns:xlink="http://www.w3.org/1999/xlink" width="57" height="57" viewBox="0 0 57 57"><defs><style>.a{fill:#b3b3b3;stroke:#707070;}.b{fill:#fcfcfc;}.c{clip-path:url(#a);}.d{fill:#e02736;}</style><clipPath id="a"><path class="a" d="M26.205,0A26.205,26.205,0,1,1,0,26.205,26.205,26.205,0,0,1,26.205,0Z" transform="translate(0)"/></clipPath></defs><g transform="translate(-139 -85)"><circle class="b" cx="28.5" cy="28.5" r="28.5" transform="translate(139 85)"/><g class="c" transform="translate(141.046 87.091)"><g transform="translate(11.188 -7.888)"><g transform="translate(0 19.983)"><path class="d" d="M59.4,79.629h8.228a.577.577,0,1,0,0-1.154H61.537l8.655-5.027,8.655,5.027h-6.16a.577.577,0,0,0,0,1.154h8.3a.577.577,0,0,0,.29-1.076l-10.8-6.271a.577.577,0,0,0-.579,0l-10.8,6.271a.577.577,0,0,0,.29,1.076Z" transform="translate(-55.426 -69.192)"/><path class="d" d="M29.533,32.479V28.621a.577.577,0,0,0-.292-.5l-14.19-8.061a.577.577,0,0,0-.57,0L.292,28.119a.577.577,0,0,0-.292.5v3.858a.577.577,0,0,0,.577.577h.572a2,2,0,0,0,1.234,2.759V43.3a2,2,0,0,0-1.234,2.759H.577a.577.577,0,0,0,0,1.154h28.38a.577.577,0,1,0,0-1.154H28.4A2,2,0,0,0,27.17,43.3V35.815A2,2,0,0,0,28.4,33.056h.553a.577.577,0,0,0,.577-.577ZM1.154,28.957l13.613-7.733L28.38,28.957V31.9H1.154ZM26.016,43.213H24.742V35.9h1.274v7.314Zm-2.427,0H22.315V35.9h1.274Zm-20.052,0V35.9H4.81v7.314ZM5.964,35.9H7.237v7.314H5.964Zm13.964-2.844-.013.031a1.994,1.994,0,0,0,1.248,2.729V43.3a2,2,0,0,0-1.234,2.759h-2.34V41.018a1.672,1.672,0,0,0-1.672-1.672H13.637a1.672,1.672,0,0,0-1.672,1.672v5.039H9.625A2,2,0,0,0,8.391,43.3V35.816a2,2,0,0,0,1.235-2.76h10.3Zm-3.493,13H13.118V41.018a.519.519,0,0,1,.518-.518h2.279a.519.519,0,0,1,.518.518v5.039ZM2.114,33.9a.846.846,0,0,1,.843-.845H7.814a.845.845,0,1,1,0,1.69H2.959a.846.846,0,0,1-.845-.845Zm0,11.311a.846.846,0,0,1,.845-.845h4.85a.845.845,0,1,1,0,1.691H2.959a.846.846,0,0,1-.845-.845Zm25.324,0a.846.846,0,0,1-.845.845H21.738a.845.845,0,0,1,0-1.69h4.857a.846.846,0,0,1,.843.845Zm0-11.311a.846.846,0,0,1-.845.845H21.743a.856.856,0,0,1-.85-.846.846.846,0,0,1,.845-.845H26.6a.846.846,0,0,1,.843.845Z" transform="translate(0 -19.983)"/><path class="d" d="M247.276,181.3a.577.577,0,1,0-.312.753A.58.58,0,0,0,247.276,181.3Z" transform="translate(-231.967 -171.664)"/></g></g></g></g></svg>