<svg xmlns="http://www.w3.org/2000/svg" xmlns:xlink="http://www.w3.org/1999/xlink" width="17.4" height="17.4" viewBox="0 0 17.4 17.4"><defs><style>.a{fill:url(#a);}.b{fill:#fff;}</style><linearGradient id="a" x1="0.5" x2="0.5" y2="1" gradientUnits="objectBoundingBox"><stop offset="0" stop-color="#df193e"/><stop offset="1" stop-color="#e33c2b"/></linearGradient></defs><g transform="translate(-292.7 -502)"><circle class="a" cx="8.7" cy="8.7" r="8.7" transform="translate(292.7 502)"/><g transform="translate(295.843 862.207)"><path class="b" d="M.255-352.956a.477.477,0,0,0-.14.111c-.119.157-.115.077-.115,1.884v1.662l.059.111a.456.456,0,0,0,.337.249c.155.029,9.77.029,9.925,0a.456.456,0,0,0,.337-.249l.059-.111v-1.3l-.052-.05a.134.134,0,0,0-.209,0l-.052.05v.624c0,.684,0,.682-.128.718-.1.027-9.737.027-9.833,0-.134-.038-.126.061-.126-1.716a10.675,10.675,0,0,1,.031-1.664c.029-.04.063-.042.959-.052.877-.01.931-.013.973-.05a.177.177,0,0,0,.006-.228C2.249-353,2.151-353,1.295-353,.368-353,.342-353,.255-352.956Z" transform="translate(0)"/><path class="b" d="M132.053-352.852a.182.182,0,0,0,.008.226,31.464,31.464,0,0,0,3.788.05,26.91,26.91,0,0,1,3.774.052,2.457,2.457,0,0,1,.033.728v.687l.052.05a.134.134,0,0,0,.209,0l.052-.05v-1.421l-.059-.111a.493.493,0,0,0-.149-.176l-.09-.063-3.793-.006A32.977,32.977,0,0,0,132.053-352.852Z" transform="translate(-129.256 -0.11)"/><path class="b" d="M30.052-322.948,30-322.9v1.365l.052.05.05.052h4.588l.05-.052a.134.134,0,0,0,0-.209l-.05-.052H30.314v-.942h5.693v.942h-.345c-.341,0-.347,0-.4.052a.172.172,0,0,0-.052.1.172.172,0,0,0,.052.1c.05.052.05.052.5.052s.452,0,.5-.052l.052-.05V-322.9l-.052-.05-.05-.052H30.1Z" transform="translate(-29.373 -29.372)"/><path class="b" d="M347.052-322.948a.172.172,0,0,0-.052.1.172.172,0,0,0,.052.1l.05.052h1.176l.05-.052a.173.173,0,0,0,.052-.1.173.173,0,0,0-.052-.1l-.05-.052H347.1Z" transform="translate(-339.738 -29.372)"/><path class="b" d="M129.052-292.948a.172.172,0,0,0-.052.1.172.172,0,0,0,.052.1l.05.052h1.972l.05-.052a.172.172,0,0,0,.052-.1.172.172,0,0,0-.052-.1l-.05-.052H129.1Z" transform="translate(-126.301 -58.744)"/><path class="b" d="M347.071-292.929l-.071.071v.657l.071.071.071.071h2.541l.071-.071.071-.071v-.657l-.071-.071-.071-.071h-2.541Zm2.441.4v.157h-2.2v-.314h2.2Z" transform="translate(-339.738 -58.744)"/><path class="b" d="M30.052-232.948a.172.172,0,0,0-.052.1.172.172,0,0,0,.052.1c.05.052.057.052.419.052s.368,0,.419-.052a.134.134,0,0,0,0-.209c-.05-.052-.057-.052-.419-.052S30.1-233,30.052-232.948Z" transform="translate(-29.373 -117.488)"/><path class="b" d="M90.071-232.929l-.071.071v.657l.071.071.071.071h4.781l.071-.071.071-.071v-.657l-.071-.071L94.923-233H90.142Zm1.122.4v.157h-.879v-.314h.879Zm1.172,0v.157h-.858v-.314h.858Zm1.193,0v.157H92.7v-.314h.858Zm1.193,0v.157h-.879v-.314h.879Z" transform="translate(-88.117 -117.488)"/><path class="b" d="M347.052-232.948a.172.172,0,0,0-.052.1.172.172,0,0,0,.052.1c.048.05.063.052.314.052s.266,0,.314-.052a.172.172,0,0,0,.052-.1.172.172,0,0,0-.052-.1c-.048-.05-.063-.052-.314-.052S347.1-233,347.052-232.948Z" transform="translate(-339.738 -117.488)"/><path class="b" d="M397.052-232.948a.172.172,0,0,0-.052.1.172.172,0,0,0,.052.1c.048.05.063.052.314.052s.266,0,.314-.052a.172.172,0,0,0,.052-.1.172.172,0,0,0-.052-.1c-.048-.05-.063-.052-.314-.052S397.1-233,397.052-232.948Z" transform="translate(-388.691 -117.488)"/><path class="b" d="M447.052-232.948a.172.172,0,0,0-.052.1.172.172,0,0,0,.052.1c.048.05.063.052.314.052s.266,0,.314-.052a.172.172,0,0,0,.052-.1.172.172,0,0,0-.052-.1c-.048-.05-.063-.052-.314-.052S447.1-233,447.052-232.948Z" transform="translate(-437.645 -117.488)"/><path class="b" d="M30.052-202.948a.172.172,0,0,0-.052.1.186.186,0,0,0,.157.157.186.186,0,0,0,.157-.157.172.172,0,0,0-.052-.1.172.172,0,0,0-.1-.052A.172.172,0,0,0,30.052-202.948Z" transform="translate(-29.373 -146.86)"/><path class="b" d="M60.052-202.948a.172.172,0,0,0-.052.1.186.186,0,0,0,.157.157.186.186,0,0,0,.157-.157.172.172,0,0,0-.052-.1.172.172,0,0,0-.1-.052A.172.172,0,0,0,60.052-202.948Z" transform="translate(-58.745 -146.86)"/><path class="b" d="M357.052-202.948a.172.172,0,0,0-.052.1.186.186,0,0,0,.157.157.187.187,0,0,0,.157-.157.187.187,0,0,0-.157-.157A.172.172,0,0,0,357.052-202.948Z" transform="translate(-349.529 -146.86)"/><path class="b" d="M407.052-202.948a.172.172,0,0,0-.052.1.187.187,0,0,0,.157.157.187.187,0,0,0,.157-.157.187.187,0,0,0-.157-.157A.172.172,0,0,0,407.052-202.948Z" transform="translate(-398.482 -146.86)"/><path class="b" d="M457.052-202.948a.172.172,0,0,0-.052.1.186.186,0,0,0,.157.157.186.186,0,0,0,.157-.157.186.186,0,0,0-.157-.157A.173.173,0,0,0,457.052-202.948Z" transform="translate(-447.435 -146.86)"/></g></g></svg>