<svg xmlns="http://www.w3.org/2000/svg" xmlns:xlink="http://www.w3.org/1999/xlink" width="19.869" height="18.887" viewBox="0 0 19.869 18.887"><defs><style>.a{fill:url(#a);}</style><linearGradient id="a" x1="0.5" x2="0.5" y2="1" gradientUnits="objectBoundingBox"><stop offset="0" stop-color="#df193e"/><stop offset="1" stop-color="#e33c2b"/></linearGradient></defs><g transform="translate(-0.968 -1.526)"><path class="a" d="M15.337,18.887H4.532a2.028,2.028,0,0,1-2.026-2.026V8.48L.959,10.026,0,9.067,8.5.571a2.08,2.08,0,0,1,2.863,0l8.5,8.5-.959.959L17.364,8.48v8.381A2.028,2.028,0,0,1,15.337,18.887Zm-8.1-7.429h5.4v6.078h2.7a.676.676,0,0,0,.675-.675V7.129l-5.6-5.606a.676.676,0,0,0-.959,0l-5.6,5.606v9.732a.676.676,0,0,0,.676.675h2.7V11.459Zm1.351,1.351v4.728h2.7V12.808h-2.7Z" transform="translate(0.968 1.526)"/></g></svg>