<svg xmlns="http://www.w3.org/2000/svg" width="11.135" height="11.134" viewBox="0 0 11.135 11.134"><defs><style>.a{fill:#e02935;}</style></defs><g transform="translate(-15.993 495.619)"><path class="a" d="M17.068-495.6a1.327,1.327,0,0,0-1.04.978c-.03.125-.035.75-.035,4.579,0,4.923-.012,4.554.158,4.874a1.313,1.313,0,0,0,.722.618l.153.06,2.38.007c1.707,0,2.424,0,2.538-.021a1.346,1.346,0,0,0,.915-.671c.142-.281.146-.334.146-1.34v-.913h-.857l-.007.892-.007.892-.07.1a.536.536,0,0,1-.163.146,10.909,10.909,0,0,1-2.4.049h-2.31l-.1-.053a.5.5,0,0,1-.163-.149l-.065-.1-.007-4.366,0-4.366.058-.118a.467.467,0,0,1,.142-.174l.088-.058,2.331-.007,2.334,0,.1.049a.43.43,0,0,1,.165.144l.063.1.007.9.007.9h.857v-.924c0-1.029,0-1.07-.156-1.358a1.393,1.393,0,0,0-.773-.636,16.969,16.969,0,0,0-2.508-.044C18.259-495.621,17.133-495.614,17.068-495.6Z"/><path class="a" d="M158.714-393.114v1.389l-2.35,0-2.352.007-.007.434,0,.437h4.714v2.775l1.607-1.609,1.609-1.607-1.609-1.607-1.607-1.609Zm1.421,2.392-.562.564v-2.252l.562.564.564.562Z" transform="translate(-134.803 -98.771)"/></g></svg>