<svg xmlns="http://www.w3.org/2000/svg" width="19.2" height="18" viewBox="0 0 19.2 18"><defs><style>.a{fill:#515353;}</style></defs><g transform="translate(0 -16)"><path class="a" d="M124.375,77.688a1.688,1.688,0,1,0-1.688,1.688A1.689,1.689,0,0,0,124.375,77.688Zm-1.688.563a.563.563,0,1,1,.563-.562A.563.563,0,0,1,122.688,78.25Z" transform="translate(-116.462 -57.75)"/><path class="a" d="M96.625,168.813a2.813,2.813,0,1,0-5.625,0v2.813h5.625ZM95.5,170.5H92.125v-1.688a1.688,1.688,0,1,1,3.375,0Z" transform="translate(-87.587 -144.375)"/><path class="a" d="M61,346h7.875v1.125H61Z" transform="translate(-58.712 -317.625)"/><path class="a" d="M61,406h7.875v1.125H61Z" transform="translate(-58.712 -375.375)"/><path class="a" d="M15.825,20.5V18.25A2.253,2.253,0,0,0,13.575,16H2.288A2.281,2.281,0,0,0,0,18.25V34H12.45V29.5h4.5a2.253,2.253,0,0,0,2.25-2.25V20.5Zm-4.5,12.375H1.125V18.25a1.16,1.16,0,0,1,1.163-1.125h9.34a2.235,2.235,0,0,0-.3,1.125ZM12.45,18.25a1.125,1.125,0,0,1,2.25,0v9a2.235,2.235,0,0,0,.3,1.125H12.45Zm5.625,9a1.125,1.125,0,1,1-2.25,0V21.625h2.25Z"/></g></svg>