<svg xmlns="http://www.w3.org/2000/svg" width="6.744" height="11.085" viewBox="0 0 6.744 11.085"><defs><style>.a{fill:#e02935;stroke:#e02935;stroke-width:0.3px;}</style></defs><g transform="translate(-141.35 442.866)"><path class="a" d="M142.344-442.692a1.157,1.157,0,0,0-.751.627l-.092.194v9.1l.092.194a1.168,1.168,0,0,0,.558.555l.188.09h4.768l.194-.1a1.176,1.176,0,0,0,.549-.549l.1-.194v-9.1l-.1-.194a1.175,1.175,0,0,0-.555-.555l-.188-.09-2.326-.006C143.485-442.718,142.4-442.706,142.344-442.692Zm.708.6a.6.6,0,0,0,.289.543l.121.081,1.185.009c1.344.009,1.375.006,1.563-.179a.667.667,0,0,0,.188-.52v-.162h.269a.819.819,0,0,1,.67.217c.234.231.217-.139.217,4.782s.017,4.551-.217,4.782-.116.22-2.676.211l-2.265-.009-.139-.081a.778.778,0,0,1-.338-.428c-.02-.069-.026-1.624-.023-4.54l.009-4.43.081-.136a.758.758,0,0,1,.774-.37h.277Zm2.942-.069c0,.133-.012.173-.072.231l-.069.072h-2.26l-.069-.072c-.061-.058-.072-.1-.072-.231v-.159h2.543Z"/><path class="a" d="M203.13-115.942a.186.186,0,0,0,0,.263l.055.069h2.67l.055-.069a.186.186,0,0,0,0-.263c-.055-.055-.1-.058-1.387-.058S203.185-116,203.13-115.942Z" transform="translate(-59.795 -317.275)"/></g></svg>