<svg xmlns="http://www.w3.org/2000/svg" width="16.442" height="17.999" viewBox="0 0 16.442 17.999"><defs><style>.a{fill:#515353;}</style></defs><g transform="translate(-22 511.933)"><path class="a" d="M29.632-511.9a6.532,6.532,0,0,0-3.2,1.308,6.4,6.4,0,0,0-2.188,3.225,5.747,5.747,0,0,0-.239,1.9l-.021.967-.334.021a2.149,2.149,0,0,0-.492.084,1.868,1.868,0,0,0-.943.851c-.215.4-.218.45-.218,2.335a7.573,7.573,0,0,0,.07,1.934,1.75,1.75,0,0,0,1.154,1.157,4.2,4.2,0,0,0,1.263.07h1.038l.12-.12.12-.12v-2.933c0-2.923,0-2.93-.074-3.053-.116-.19-.162-.208-.5-.211h-.31l.018-.89a5.156,5.156,0,0,1,.271-1.927,5.463,5.463,0,0,1,4.009-3.619,5.561,5.561,0,0,1,3.025.2,5.471,5.471,0,0,1,3.485,4,5.583,5.583,0,0,1,.091,1.273l.018.96h-.3c-.341,0-.426.039-.524.26a14.644,14.644,0,0,0-.067,3c0,3.137-.011,3.007.211,3.12a1.015,1.015,0,0,0,.4.053c.3,0,.3,0,.26.077a4.409,4.409,0,0,1-.89.83,3.526,3.526,0,0,1-1.642.559l-.306.021-.025-.12a2.715,2.715,0,0,0-.165-.415,1.766,1.766,0,0,0-.429-.584,2.03,2.03,0,0,0-1.055-.587A2.2,2.2,0,0,0,28.7-496.8a2.059,2.059,0,0,0,.13,1.635,2.227,2.227,0,0,0,2.089,1.224,2.366,2.366,0,0,0,1.548-.739,2.434,2.434,0,0,0,.457-.865c.025-.141.028-.144.165-.144a5.264,5.264,0,0,0,1.249-.229,4.4,4.4,0,0,0,2.325-1.78l.253-.373.172-.025a1.721,1.721,0,0,0,1.059-.552,1.861,1.861,0,0,0,.2-.338l.095-.2v-3.693l-.109-.285a1.868,1.868,0,0,0-1.414-1.3l-.208-.021-.021-.883a6.613,6.613,0,0,0-.215-1.85,6.493,6.493,0,0,0-2.87-3.809A6.5,6.5,0,0,0,29.632-511.9Zm-4.748,10.636v2.339h-.658c-.623,0-.672-.007-.837-.084a.827.827,0,0,1-.436-.443c-.07-.151-.074-.225-.074-1.745,0-1.8,0-1.822.253-2.107s.324-.3,1.094-.3h.658Zm12.043-2.3a1.17,1.17,0,0,1,.517.57l.12.257.011,1.618c.007,1.083,0,1.66-.025,1.748a.631.631,0,0,1-.162.236c-.193.169-.411.215-1.045.215h-.556V-503.6h.524A3.35,3.35,0,0,1,36.927-503.565Zm-5.6,6.232a1.489,1.489,0,0,1,.654.654,1.025,1.025,0,0,1,.095.57.962.962,0,0,1-.088.545,1.378,1.378,0,0,1-.967.717,1.344,1.344,0,0,1-1.414-.756,1.3,1.3,0,0,1,.809-1.794A1.533,1.533,0,0,1,31.327-497.332Z" transform="translate(0 0)"/></g></svg>