<svg xmlns="http://www.w3.org/2000/svg" xmlns:xlink="http://www.w3.org/1999/xlink" width="17.932" height="18.76" viewBox="0 0 17.932 18.76"><defs><style>.a{fill:url(#a);}</style><linearGradient id="a" x1="0.5" x2="0.5" y2="1" gradientUnits="objectBoundingBox"><stop offset="0" stop-color="#df193e"/><stop offset="1" stop-color="#e33c2b"/></linearGradient></defs><g transform="translate(-11.328)"><g transform="translate(11.328 9.404)"><g transform="translate(0)"><path class="a" d="M20.294,257.323a8.976,8.976,0,0,0-8.966,8.966.39.39,0,0,0,.78,0,8.186,8.186,0,0,1,16.373,0,.39.39,0,0,0,.78,0A8.976,8.976,0,0,0,20.294,257.323Z" transform="translate(-11.328 -257.323)"/></g></g><g transform="translate(16.006)"><g transform="translate(0)"><path class="a" d="M143.616,0A4.288,4.288,0,1,0,147.9,4.288,4.293,4.293,0,0,0,143.616,0Zm0,7.8a3.508,3.508,0,1,1,3.508-3.508A3.513,3.513,0,0,1,143.616,7.8Z" transform="translate(-139.328)"/></g></g></g></svg>