<svg xmlns="http://www.w3.org/2000/svg" width="16.299" height="9.508" viewBox="0 0 16.299 9.508"><defs><style>.a{fill:#003;}</style></defs><g transform="translate(0 -106.662)"><g transform="translate(0 106.662)"><g transform="translate(0 0)"><path class="a" d="M16.239,111.223c-.128-.187-3.213-4.561-8.089-4.561-4.184,0-7.913,4.349-8.069,4.535a.341.341,0,0,0,0,.439c.157.185,3.885,4.535,8.069,4.535s7.913-4.349,8.069-4.535A.34.34,0,0,0,16.239,111.223ZM8.15,115.491c-3.354,0-6.543-3.2-7.354-4.075.809-.877,3.995-4.075,7.354-4.075,3.925,0,6.695,3.194,7.371,4.056C14.74,112.246,11.532,115.491,8.15,115.491Z" transform="translate(0 -106.662)"/></g></g><g transform="translate(5.433 108.699)"><g transform="translate(0 0)"><path class="a" d="M173.379,170.662a2.717,2.717,0,1,0,2.717,2.717A2.719,2.719,0,0,0,173.379,170.662Zm0,4.754a2.037,2.037,0,1,1,2.037-2.037A2.04,2.04,0,0,1,173.379,175.416Z" transform="translate(-170.662 -170.662)"/></g></g></g></svg>